#!OML:ASF I:\Random Stuff\random\construction\7_22_03\Session 2\subj1.ASF
:FULLY-SPECIFIED
:DEGREES
1390
root -12.464 17.6556 -6.19727 -357.482 80.3825 -384.34
lowerback 24.3352 2.49057 -6.3659
upperback 7.5002 2.24369 0.695792
thorax -5.468 1.2682 3.74576
lowerneck -19.3869 -0.373532 0.998756
upperneck 34.0497 0.238787 -0.736678
head 15.1395 0.344766 -0.38012
rclavicle 1.03368e-014 5.1684e-014
rhumerus -19.2126 26.5261 -89.4845
rradius 91.3395
rwrist -7.60928
rhand -36.5447 29.6906
rfingers 7.12502
rthumb -9.6354 -0.0690868
lclavicle 1.03368e-014 5.1684e-014
lhumerus 22.699 -17.1799 55.8854
lradius 52.574
lwrist 3.78469
lhand -37.6247 75.1505
lfingers 7.12502
lthumb -10.6773 255.141
rfemur -39.7662 0.97048 18.1062
rtibia 18.4095
rfoot -5.417 -5.43337
rtoes -22.661
lfemur -45.9638 -0.786998 -9.95412
ltibia 30.9428
lfoot -18.0838 4.5939
ltoes -12.1208
1391
root -12.4808 17.6553 -6.20002 -356.117 80.0309 -383.056
lowerback 24.5422 2.61366 -6.2694
upperback 7.5928 2.42692 0.829887
thorax -5.49223 1.356 3.78053
lowerneck -19.3246 -0.417738 1.08945
upperneck 33.6724 0.0743709 -0.653177
head 14.9462 0.291745 -0.391677
rclavicle -5.56597e-015 -4.41302e-014
rhumerus -18.5607 26.7859 -89.33
rradius 91.4566
rwrist -7.98596
rhand -36.1192 29.8696
rfingers 7.12502
rthumb -9.22479 0.0913812
lclavicle -5.56597e-015 -4.41302e-014
lhumerus 22.6297 -17.1597 55.7972
lradius 52.9433
lwrist 4.69924
lhand -37.7067 75.2824
lfingers 7.12502
lthumb -10.7564 255.013
rfemur -40.0508 0.911472 18.0808
rtibia 18.4563
rfoot -5.41461 -5.03858
rtoes -22.9045
lfemur -46.0761 -0.561012 -10.1203
ltibia 30.9914
lfoot -18.0193 4.75361
ltoes -12.2954
1392
root -12.5024 17.652 -6.20341 -354.725 79.6568 -381.876
lowerback 24.642 2.7467 -6.19058
upperback 7.65601 2.62067 0.95337
thorax -5.49699 1.44754 3.81226
lowerneck -19.1968 -0.486028 1.095
upperneck 33.317 -0.11113 -0.499279
head 14.7506 0.229492 -0.362616
rclavicle 2.62396e-014 7.35503e-015
rhumerus -17.9614 27.0289 -89.1985
rradius 91.7617
rwrist -8.31189
rhand -35.6299 30.083
rfingers 7.12502
rthumb -8.75262 0.284501
lclavicle 2.62396e-014 7.35503e-015
lhumerus 22.6371 -17.1618 55.7314
lradius 53.2133
lwrist 5.37229
lhand -37.8131 75.2837
lfingers 7.12502
lthumb -10.859 255.017
rfemur -40.5254 0.860995 18.0826
rtibia 18.5389
rfoot -5.344 -4.64226
rtoes -23.6993
lfemur -46.3567 -0.242505 -10.3093
ltibia 31.0606
lfoot -17.9674 4.83616
ltoes -12.4602
1393
root -12.5253 17.648 -6.20991 -353.617 79.2717 -380.945
lowerback 24.8403 2.8762 -6.09828
upperback 7.72015 2.80799 1.07754
thorax -5.54849 1.53758 3.83577
lowerneck -19.0423 -0.585336 1.0822
upperneck 32.9605 -0.320961 -0.373898
head 14.5508 0.15023 -0.346373
rclavicle -6.36111e-015 -1.47101e-014
rhumerus -17.4188 27.3157 -89.07
rradius 92.2486
rwrist -8.98713
rhand -35.0501 30.9551
rfingers 7.12502
rthumb -8.19308 1.13392
lclavicle -6.36111e-015 -1.47101e-014
lhumerus 22.6368 -17.1353 55.6165
lradius 53.5502
lwrist 5.93281
lhand -37.887 75.3846
lfingers 7.12502
lthumb -10.9303 254.92
rfemur -41.0052 0.757755 18.1477
rtibia 18.7143
rfoot -5.36211 -4.17834
rtoes -24.1496
lfemur -46.5677 0.0383422 -10.4506
ltibia 31.0885
lfoot -17.9424 4.93203
ltoes -12.2712
1394
root -12.5467 17.6429 -6.21681 -352.629 78.9567 -379.976
lowerback 25.215 2.98208 -6.0989
upperback 7.88849 2.94827 1.23905
thorax -5.57043 1.60548 3.96415
lowerneck -18.9487 -0.609326 1.15798
upperneck 32.5414 -0.411465 -0.382393
head 14.3393 0.110538 -0.379476
rclavicle -4.51241e-014 -6.48038e-014
rhumerus -16.6449 27.7753 -88.7916
rradius 92.7454
rwrist -9.83043
rhand -34.0181 31.6748
rfingers 7.12502
rthumb -7.197 1.81716
lclavicle -4.51241e-014 -6.48038e-014
lhumerus 22.6666 -17.0377 55.3319
lradius 54.1075
lwrist 6.54508
lhand -37.8422 75.5085
lfingers 7.12502
lthumb -10.887 254.794
rfemur -41.2594 0.768971 18.062
rtibia 18.8398
rfoot -5.40017 -3.85683
rtoes -23.7364
lfemur -46.6148 0.213282 -10.6095
ltibia 31.1783
lfoot -17.9772 4.94896
ltoes -11.2665
1395
root -12.5614 17.6396 -6.22674 -351.927 79.1372 -379.035
lowerback 25.9437 2.87637 -5.92355
upperback 8.18339 2.86714 1.45984
thorax -5.59501 1.57129 4.11756
lowerneck -18.8587 -0.553446 1.30156
upperneck 31.9769 -0.366383 -0.542763
head 14.0676 0.11151 -0.461793
rclavicle -4.96962e-016 0
rhumerus -15.5938 28.3414 -88.3266
rradius 93.1553
rwrist -10.4469
rhand -32.475 31.6366
rfingers 7.12502
rthumb -5.70737 1.73342
lclavicle -4.96962e-016 0
lhumerus 22.7021 -16.7947 55.0006
lradius 54.9073
lwrist 7.09608
lhand -37.684 75.6636
lfingers 7.12502
lthumb -10.7345 254.631
rfemur -41.1127 0.687802 17.7873
rtibia 18.9813
rfoot -5.43347 -3.98862
rtoes -23.4777
lfemur -46.4856 0.082968 -10.8648
ltibia 31.2542
lfoot -17.9276 4.7158
ltoes -10.0761
1396
root -12.5919 17.6319 -6.23284 -351.629 78.6703 -379.061
lowerback 26.0111 3.02441 -5.94629
upperback 8.38754 3.0779 1.68289
thorax -5.43713 1.66555 4.31391
lowerneck -18.6934 -0.48981 1.45689
upperneck 31.3424 -0.307684 -0.72206
head 13.7538 0.116409 -0.549689
rclavicle -7.7526e-015 -2.52953e-014
rhumerus -14.5236 28.8268 -87.8039
rradius 93.6089
rwrist -10.678
rhand -30.3876 30.72
rfingers 7.12502
rthumb -3.6918 0.772184
lclavicle -7.7526e-015 -2.52953e-014
lhumerus 22.6309 -16.4612 54.6943
lradius 55.967
lwrist 7.64106
lhand -37.567 75.8887
lfingers 7.12502
lthumb -10.6216 254.4
rfemur -41.7729 0.940132 17.8435
rtibia 19.1357
rfoot -5.28739 -3.76018
rtoes -23.8705
lfemur -46.9288 0.622148 -10.9317
ltibia 31.3583
lfoot -17.7501 4.70324
ltoes -9.97607
1397
root -12.6172 17.625 -6.24823 -351.642 78.7203 -379.07
lowerback 26.6015 2.93888 -5.70384
upperback 8.67003 3.04909 1.92897
thorax -5.40899 1.65401 4.44534
lowerneck -18.5774 -0.393729 1.51459
upperneck 30.7132 -0.216159 -0.766925
head 13.4598 0.141961 -0.561188
rclavicle -2.13694e-014 -8.32411e-015
rhumerus -13.3249 29.3187 -87.1419
rradius 94.1142
rwrist -10.666
rhand -27.6054 28.7975
rfingers 7.12502
rthumb -1.00481 -1.17987
lclavicle -2.13694e-014 -8.32411e-015
lhumerus 22.4962 -15.8864 54.5315
lradius 57.1504
lwrist 8.12089
lhand -37.4224 76.074
lfingers 7.12502
lthumb -10.4821 254.207
rfemur -41.9279 0.81302 17.8575
rtibia 19.2151
rfoot -5.21718 -3.71067
rtoes -23.9649
lfemur -47.1004 0.639848 -10.9942
ltibia 31.4484
lfoot -17.6933 4.5528
ltoes -9.44672
1398
root -12.6433 17.6155 -6.26135 -351.798 78.7471 -379.293
lowerback 27.1411 2.86861 -5.54505
upperback 9.00988 3.03148 2.19419
thorax -5.29391 1.6453 4.64658
lowerneck -18.676 -0.302513 1.46492
upperneck 30.1157 -0.154956 -0.656096
head 13.23 0.16217 -0.499328
rclavicle 5.57529e-015 -1.55285e-014
rhumerus -11.828 29.9342 -86.2546
rradius 94.5652
rwrist -10.5661
rhand -24.0995 26.386
rfingers 7.12502
rthumb 2.38131 -3.58048
lclavicle 5.57529e-015 -1.55285e-014
lhumerus 22.4036 -15.0045 54.5186
lradius 58.3846
lwrist 8.42926
lhand -37.2584 76.2049
lfingers 7.12502
lthumb -10.3239 254.068
rfemur -42.1643 0.805543 17.8548
rtibia 19.3169
rfoot -5.17166 -3.7167
rtoes -23.6301
lfemur -47.299 0.602452 -10.9269
ltibia 31.5483
lfoot -17.7812 4.41093
ltoes -8.39398
1399
root -12.6698 17.6152 -6.27387 -351.593 78.7414 -379.209
lowerback 27.7274 2.751 -5.72067
upperback 9.13746 2.8567 2.54623
thorax -5.42974 1.56383 5.18717
lowerneck -18.133 -0.13344 1.11388
upperneck 29.452 0.141986 -0.541156
head 12.8435 0.256017 -0.345134
rclavicle -2.03133e-015 -2.56463e-014
rhumerus -10.7585 31.2775 -85.4256
rradius 95.0467
rwrist -10.2705
rhand -20.1837 23.7668
rfingers 7.12502
rthumb 6.16252 -6.1236
lclavicle -2.03133e-015 -2.56463e-014
lhumerus 21.5379 -13.8666 54.7584
lradius 59.8268
lwrist 8.6629
lhand -37.1453 76.3147
lfingers 7.12502
lthumb -10.2148 253.953
rfemur -42.4951 0.886426 17.7396
rtibia 19.4737
rfoot -5.1078 -3.78399
rtoes -23.4966
lfemur -47.7079 0.688126 -11.0315
ltibia 31.5789
lfoot -17.6348 4.54384
ltoes -10.0449
1400
root -12.6942 17.6012 -6.28762 -350.873 78.7313 -378.642
lowerback 28.4007 2.63432 -6.1344
upperback 9.19951 2.61414 2.92592
thorax -5.67054 1.45231 5.92579
lowerneck -17.4737 0.0908484 0.611087
upperneck 28.7947 0.563089 -0.426951
head 12.4411 0.391914 -0.14997
rclavicle -1.23246e-014 -1.91454e-014
rhumerus -9.74779 33.0978 -84.4621
rradius 95.459
rwrist -9.71964
rhand -16.7035 21.9052
rfingers 7.12502
rthumb 9.52145 -7.85963
lclavicle -1.23246e-014 -1.91454e-014
lhumerus 20.3687 -12.5825 55.0569
lradius 61.5271
lwrist 8.90788
lhand -37.0336 76.6453
lfingers 7.12502
lthumb -10.1071 253.617
rfemur -42.8887 0.847175 17.5761
rtibia 19.6248
rfoot -5.02706 -3.75241
rtoes -23.6224
lfemur -47.9028 0.727486 -11.1998
ltibia 31.5832
lfoot -17.8827 4.38366
ltoes -9.36183
